<?xml version="1.0" standalone="no"?><svg xmlns="http://www.w3.org/2000/svg" viewBox="0 0 1440 320"><path fill="#5000ca" fill-opacity="0.7" d="M0,224L34.3,218.7C68.6,213,137,203,206,176C274.3,149,343,107,411,117.3C480,128,549,192,617,181.3C685.7,171,754,85,823,96C891.4,107,960,213,1029,266.7C1097.1,320,1166,320,1234,320C1302.9,320,1371,320,1406,320L1440,320L1440,320L1405.7,320C1371.4,320,1303,320,1234,320C1165.7,320,1097,320,1029,320C960,320,891,320,823,320C754.3,320,686,320,617,320C548.6,320,480,320,411,320C342.9,320,274,320,206,320C137.1,320,69,320,34,320L0,320Z"></path></svg>